<svg preserveAspectRatio="none" width="100%" height="100%" overflow="visible" style="display: block;" viewBox="0 0 20 20" fill="none" xmlns="http://www.w3.org/2000/svg">
<g id="App" clip-path="url(#clip0_0_79)">
<path id="Vector" d="M18.9 0H1.1C0.80826 0 0.528475 0.115892 0.322183 0.322183C0.115892 0.528475 0 0.80826 0 1.1V18.9C0 19.1917 0.115892 19.4715 0.322183 19.6778C0.528475 19.8841 0.80826 20 1.1 20H10.68V12.25H8.08V9.25H10.68V7C10.6262 6.47175 10.6885 5.93815 10.8627 5.43655C11.037 4.93495 11.3187 4.47754 11.6884 4.09641C12.0581 3.71527 12.5067 3.41964 13.0028 3.23024C13.4989 3.04084 14.0304 2.96225 14.56 3C15.3384 2.99462 16.1163 3.03469 16.89 3.12V5.82H15.3C14.04 5.82 13.8 6.42 13.8 7.29V9.22H16.8L16.41 12.22H13.8V20H18.9C19.0444 20 19.1875 19.9716 19.3209 19.9163C19.4544 19.861 19.5756 19.7799 19.6778 19.6778C19.7799 19.5756 19.861 19.4544 19.9163 19.3209C19.9716 19.1875 20 19.0444 20 18.9V1.1C20 0.955545 19.9716 0.812505 19.9163 0.67905C19.861 0.54559 19.7799 0.424327 19.6778 0.322183C19.5756 0.220038 19.4544 0.139013 19.3209 0.0837325C19.1875 0.0284525 19.0444 0 18.9 0Z" fill="var(--fill-0, white)"/>
</g>
<defs>
<clipPath id="clip0_0_79">
<rect width="20" height="20" fill="white"/>
</clipPath>
</defs>
</svg>
