<svg preserveAspectRatio="none" width="100%" height="100%" overflow="visible" style="display: block;" viewBox="0 0 20 20" fill="none" xmlns="http://www.w3.org/2000/svg">
<g id="App">
<path id="Vector" d="M15.9006 4.17249C14.8002 3.62475 13.6235 3.22667 12.3934 3C12.2423 3.29059 12.0658 3.68143 11.9441 3.99234C10.6365 3.78312 9.3408 3.78312 8.05715 3.99234C7.9355 3.68143 7.755 3.29059 7.60255 3C6.37105 3.22667 5.1931 3.62622 4.09264 4.1754C1.87304 7.7437 1.27134 11.2233 1.57219 14.6536C3.04434 15.8231 4.47104 16.5337 5.87365 16.9986C6.21995 16.4915 6.52885 15.9525 6.7949 15.3844C6.28815 15.1796 5.8028 14.9268 5.3442 14.6333C5.46585 14.5374 5.58485 14.4371 5.69985 14.334C8.49705 15.7258 11.5363 15.7258 14.3001 14.334C14.4165 14.4371 14.5354 14.5374 14.6558 14.6333C14.1958 14.9282 13.7091 15.181 13.2023 15.3858C13.4684 15.9525 13.7759 16.493 14.1236 17C15.5275 16.5351 16.9556 15.8246 18.4278 14.6536C18.7808 10.677 17.8247 7.22935 15.9006 4.17249ZM7.176 12.544C6.3363 12.544 5.6477 11.71 5.6477 10.6945C5.6477 9.6789 6.3216 8.8435 7.176 8.8435C8.0304 8.8435 8.719 9.67745 8.7043 10.6945C8.70565 11.71 8.0304 12.544 7.176 12.544ZM12.8239 12.544C11.9842 12.544 11.2956 11.71 11.2956 10.6945C11.2956 9.6789 11.9695 8.8435 12.8239 8.8435C13.6783 8.8435 14.3669 9.67745 14.3522 10.6945C14.3522 11.71 13.6783 12.544 12.8239 12.544Z" fill="var(--fill-0, white)"/>
</g>
</svg>
